<svg width="1200" height="600" xmlns="http://www.w3.org/2000/svg">
  <!-- Dark gradient background -->
  <defs>
    <linearGradient id="grad1" x1="0%" y1="0%" x2="100%" y2="100%">
      <stop offset="0%" style="stop-color:#24292e;stop-opacity:1" />
      <stop offset="100%" style="stop-color:#0e76a8;stop-opacity:0.7" />
    </linearGradient>
  </defs>
  
  <!-- Background rectangle -->
  <rect width="100%" height="100%" fill="url(#grad1)" />
  
  <!-- Abstract network pattern -->
  <g stroke="#ffffff" stroke-width="0.5" stroke-opacity="0.2">
    <!-- Horizontal lines -->
    <line x1="0" y1="100" x2="1200" y2="100" />
    <line x1="0" y1="200" x2="1200" y2="200" />
    <line x1="0" y1="300" x2="1200" y2="300" />
    <line x1="0" y1="400" x2="1200" y2="400" />
    <line x1="0" y1="500" x2="1200" y2="500" />
    
    <!-- Vertical lines -->
    <line x1="200" y1="0" x2="200" y2="600" />
    <line x1="400" y1="0" x2="400" y2="600" />
    <line x1="600" y1="0" x2="600" y2="600" />
    <line x1="800" y1="0" x2="800" y2="600" />
    <line x1="1000" y1="0" x2="1000" y2="600" />
  </g>
  
  <!-- DevOps related icons/symbols -->
  <g fill="#ffffff" fill-opacity="0.1">
    <!-- Infinity symbol (representing continuous integration/deployment) -->
    <path d="M300,150 C350,100 400,100 450,150 C500,200 550,200 600,150 C650,100 700,100 750,150 C800,200 850,200 900,150 M900,150 C850,200 800,200 750,150 C700,100 650,100 600,150 C550,200 500,200 450,150 C400,100 350,100 300,150" stroke="#ffffff" stroke-width="8" stroke-opacity="0.2" fill="none"/>
    
    <!-- Gear icons (representing automation) -->
    <circle cx="200" cy="400" r="50" />
    <circle cx="200" cy="400" r="25" fill="url(#grad1)" />
    <circle cx="1000" cy="200" r="60" />
    <circle cx="1000" cy="200" r="30" fill="url(#grad1)" />
    
    <!-- Server racks -->
    <rect x="400" y="350" width="80" height="150" rx="5" />
    <rect x="410" y="360" width="60" height="10" fill="#0e76a8" fill-opacity="0.5" />
    <rect x="410" y="380" width="60" height="10" fill="#0e76a8" fill-opacity="0.5" />
    <rect x="410" y="400" width="60" height="10" fill="#0e76a8" fill-opacity="0.5" />
    <rect x="410" y="420" width="60" height="10" fill="#0e76a8" fill-opacity="0.5" />
    
    <rect x="700" y="350" width="80" height="150" rx="5" />
    <rect x="710" y="360" width="60" height="10" fill="#0e76a8" fill-opacity="0.5" />
    <rect x="710" y="380" width="60" height="10" fill="#0e76a8" fill-opacity="0.5" />
    <rect x="710" y="400" width="60" height="10" fill="#0e76a8" fill-opacity="0.5" />
    <rect x="710" y="420" width="60" height="10" fill="#0e76a8" fill-opacity="0.5" />
  </g>
  
  <!-- Small particles/dots scattered around -->
  <g fill="#ffffff">
    <circle cx="100" cy="100" r="1" />
    <circle cx="150" cy="250" r="1" />
    <circle cx="300" cy="50" r="1" />
    <circle cx="450" cy="350" r="1" />
    <circle cx="600" cy="100" r="1" />
    <circle cx="750" cy="300" r="1" />
    <circle cx="900" cy="200" r="1" />
    <circle cx="1050" cy="400" r="1" />
    <circle cx="1100" cy="150" r="1" />
    <circle cx="200" cy="500" r="1" />
    <circle cx="350" cy="450" r="1" />
    <circle cx="500" cy="200" r="1" />
    <circle cx="650" cy="550" r="1" />
    <circle cx="800" cy="150" r="1" />
    <circle cx="950" cy="500" r="1" />
    <circle cx="1150" cy="300" r="1" />
  </g>
</svg>